# xmcd
#
# Track frame offsets: 
#        150
#        36514
#        76824
#        108736
#        130644
#        158379
#        184658
#        224009
#        244604
#
# Disc length: 3433 seconds
#
# Revision: 1
# Processed by: cddbd v1.5.2PL0 Copyright (c) Steve Scherf et al.
# Submitted via: ExactAudioCopy v1.0b3
#
DISCID=720d6709
DTITLE=Lito Epumer - Dos Zorros
DYEAR=2004
DGENRE=Jazz
TTITLE0=Judu
TTITLE1=La China
TTITLE2=La Solterona
TTITLE3=El Fumador
TTITLE4=Dos Zorros
TTITLE5=Princesa Cristal
TTITLE6=El León
TTITLE7=Alas De La Mañana
TTITLE8=Princesa Cristal [Intrumental]
EXTD=YEAR: 2004
EXTT0=
EXTT1=
EXTT2=
EXTT3=
EXTT4=
EXTT5=
EXTT6=
EXTT7=
EXTT8=
PLAYORDER=
